<svg width="24" height="24" xmlns="http://www.w3.org/2000/svg" xmlns:xlink="http://www.w3.org/1999/xlink"><defs><path d="M12.6 16h-11C.64 16 0 15.472 0 14.422c0-2.302 2.062-4.42 4.4-4.42H5v-.936c-1.242-.627-2-1.75-2-3.102v-1.59C3 1.91 5.026 0 7.6 0 10.04 0 12 1.878 12 4.176v1.788a3.393 3.393 0 01-2 3.122v.917h.6c2.406 0 4.4 2.083 4.4 4.42 0 1.16-.745 1.577-2.4 1.577zm-2-4.997H9.5a.5.5 0 01-.5-.5V8.745a.5.5 0 01.343-.475A2.395 2.395 0 0011 5.964V4.176C11 2.44 9.497 1 7.6 1 5.565 1 4 2.476 4 4.374v1.59C4 7 4.624 7.84 5.691 8.283A.5.5 0 016 8.745v1.758a.5.5 0 01-.5.5H4.4c-1.78 0-3.4 1.664-3.4 3.42 0 .45.154.577.6.577h11c1.176 0 1.4-.125 1.4-.578 0-1.793-1.556-3.42-3.4-3.42z" id="path-1"/></defs><g id="ic/small/user" stroke="none" stroke-width="1" fill="none" fill-rule="evenodd"><g id="Page-1" transform="translate(5 4)"><mask id="mask-2" fill="#fff"><use xlink:href="#path-1"/></mask><g id="color/white" mask="url(#mask-2)" fill="#FFF"><path d="M0 0h25v26H0z" transform="translate(-5 -5)" id="Rectangle-3"/></g></g></g></svg>